<svg xmlns="http://www.w3.org/2000/svg" data-name="Layer 1" viewBox="0 0 512 512"><path d="M239.78,206.58a7.5,7.5,0,0,0-7.5,7.5V224a7.5,7.5,0,0,0,15,0v-9.89A7.49,7.49,0,0,0,239.78,206.58Zm-19.49,52.63a26.76,26.76,0,0,1-15,4.39,26.42,26.42,0,0,1-14.09-4.39,7.5,7.5,0,0,0-8.26,12.52A41.37,41.37,0,0,0,205,278.6h.73a42,42,0,0,0,22.84-6.87,7.5,7.5,0,0,0-8.26-12.52Zm-48.63-52.63a7.5,7.5,0,0,0-7.5,7.5V224a7.5,7.5,0,0,0,15,0v-9.89A7.49,7.49,0,0,0,171.66,206.58Zm31.07,198.1a7.5,7.5,0,1,0,7.5,7.5A7.5,7.5,0,0,0,202.73,404.68Zm0,60a7.5,7.5,0,1,0,7.5,7.5A7.5,7.5,0,0,0,202.73,464.68Zm0-30a7.5,7.5,0,1,0,7.5,7.5A7.5,7.5,0,0,0,202.73,434.68ZM487.6,325.73H457.29V310.89a26.2,26.2,0,0,0-26.18-26.17H350.47a26.2,26.2,0,0,0-26.17,26.17v14.84H294a24.45,24.45,0,0,0-5.9.73l-12.6-3.1a52.66,52.66,0,0,0,36.89-50.17V230.25c0-.07,0-.14,0-.21V209c0-.06,0-.13,0-.2V152.9a106.65,106.65,0,0,0-213.29,0V273.19a52.63,52.63,0,0,0,34.26,49.26l-69.07,17c-32.54,8-57.21,35.3-61.39,67.91-.11.85-.2,1.69-.29,2.54L.34,433.16q0,.36,0,.72V474.5A37.54,37.54,0,0,0,37.81,512H487.6A24.42,24.42,0,0,0,512,487.6V350.13A24.43,24.43,0,0,0,487.6,325.73ZM297.37,273.19a37.59,37.59,0,0,1-37.56,37.55H248.3v-4.6a81.31,81.31,0,0,0,36.17-55.69H292a20.52,20.52,0,0,0,5.4-.74Zm-90.8,30.55a64.14,64.14,0,0,1-37-11,7.47,7.47,0,0,0-2-1.36,66.73,66.73,0,0,1-7.34-6.26A64.27,64.27,0,0,1,141,239V197.84A54,54,0,0,0,154,190.26c11.26-8.93,16.77-20.84,19.46-30.79a134.15,134.15,0,0,0,97,40.83V238C270.44,273.79,241.79,303.3,206.57,303.74Zm26.73,10V329a30.73,30.73,0,1,1-61.45,0V311.24a79.41,79.41,0,0,0,33.87,7.5h1A77.85,77.85,0,0,0,233.3,313.72Zm64.07-83.47a5.41,5.41,0,0,1-5.4,5.2h-6.53V203.54H292a5.42,5.42,0,0,1,5.4,5.21ZM114.08,152.9a91.65,91.65,0,0,1,183.29,0v36.39a20.53,20.53,0,0,0-5.4-.75h-7.71a7.78,7.78,0,0,0-1.19-1.45,7.52,7.52,0,0,0-5.6-2,119.4,119.4,0,0,1-103.06-47.43A7.5,7.5,0,0,0,160.92,142c-.11,5.62-1.6,24.85-16.3,36.51a39.85,39.85,0,0,1-13.28,6.87,7.45,7.45,0,0,0-4.14,3.16h-7.7a20.21,20.21,0,0,0-5.42.76ZM126,203.54v31.91H119.5a5.41,5.41,0,0,1-5.41-5.41V209a5.42,5.42,0,0,1,5.41-5.41Zm-11.93,69.65V249.7a20.21,20.21,0,0,0,5.42.75h7.33a79,79,0,0,0,22.89,45.3,82.05,82.05,0,0,0,7.13,6.24v8.75h-5.21A37.59,37.59,0,0,1,114.08,273.19ZM271.47,497H83.4V443.25a7.5,7.5,0,0,0-15,0V497H37.81a22.52,22.52,0,0,1-22.5-22.5V434.24l2.21-22.88c.07-.7.15-1.39.24-2.08,3.4-26.51,23.53-48.72,50.09-55.26L157,332.09a45.71,45.71,0,0,0,91.21,0l24.57,6a24.28,24.28,0,0,0-3.17,12V487.6A24.31,24.31,0,0,0,271.47,497ZM339.3,310.89a11.18,11.18,0,0,1,11.17-11.17h80.64a11.18,11.18,0,0,1,11.18,11.17v14.84h-103ZM497,487.6a9.4,9.4,0,0,1-9.4,9.4H294a9.41,9.41,0,0,1-9.4-9.4V396.75l75.72,37.77v19.59a14.52,14.52,0,0,0,14.5,14.5h32a14.52,14.52,0,0,0,14.5-14.5V434.52L497,396.75Zm-121.7-34v-31h31v31ZM497,380l-76.3,38.06a14.52,14.52,0,0,0-13.91-10.44h-32a14.53,14.53,0,0,0-13.92,10.44L284.58,380V350.13a9.41,9.41,0,0,1,9.4-9.4H487.6a9.41,9.41,0,0,1,9.4,9.4Z"/></svg>