<svg width="70" height="70" viewBox="0 0 48 48" fill="none" xmlns="http://www.w3.org/2000/svg">
<path d="M24 0C10.7511 0 0 10.7511 0 24C0 37.2489 10.7511 48 24 48C37.2489 48 48 37.2489 48 24C48 10.7511 37.2489 0 24 0ZM24 1C36.7085 1 47 11.2916 47 24C47 36.7085 36.7085 47 24 47C11.2915 47 1 36.7085 1 24C1 11.2916 11.2915 1 24 1ZM34.0039 13.998C32.7504 13.998 31.6425 14.5908 30.9082 15.498H22.7871C22.7115 15.4982 22.6368 15.5155 22.5688 15.5486C22.5008 15.5818 22.4412 15.6299 22.3945 15.6895L20.8262 17.6875C20.7571 17.7755 20.7196 17.8842 20.7196 17.9961C20.7196 18.108 20.7571 18.2166 20.8262 18.3047L22.3945 20.3066C22.4412 20.3662 22.5008 20.4143 22.5688 20.4475C22.6368 20.4806 22.7115 20.4979 22.7871 20.498H23.3262H24.1992C24.2672 20.4981 24.3345 20.4842 24.397 20.4574C24.4594 20.4305 24.5158 20.3912 24.5625 20.3418L24.957 19.9258L25.3516 20.3418C25.3983 20.3912 25.4546 20.4305 25.5171 20.4574C25.5796 20.4842 25.6468 20.4981 25.7148 20.498H27.2305C27.2985 20.4981 27.3657 20.4842 27.4282 20.4574C27.4907 20.4305 27.547 20.3912 27.5938 20.3418L27.9902 19.9238L28.3848 20.3418C28.4315 20.3912 28.4878 20.4305 28.5503 20.4574C28.6128 20.4842 28.6801 20.4981 28.748 20.498H30.9082C31.6425 21.4051 32.7504 21.998 34.0039 21.998C36.2071 21.998 38.0039 20.2012 38.0039 17.998C38.0039 15.7948 36.2071 13.998 34.0039 13.998ZM34.0039 14.998C35.6667 14.998 37.0039 16.3352 37.0039 17.998C37.0039 19.6608 35.6667 20.998 34.0039 20.998C32.3411 20.998 31.0039 19.6608 31.0039 17.998C31.0039 16.3352 32.3411 14.998 34.0039 14.998ZM23.0312 16.498H30.3027C30.1746 16.8124 30.0989 17.1501 30.0547 17.498H22.2461L23.0312 16.498ZM35.5039 17.5059C35.3713 17.5059 35.2442 17.5577 35.1504 17.65C35.0566 17.7423 35.0039 17.8675 35.0039 17.998C35.0039 18.1286 35.0566 18.2538 35.1504 18.3461C35.2442 18.4384 35.3713 18.4902 35.5039 18.4902C35.6365 18.4902 35.7636 18.4384 35.8574 18.3461C35.9512 18.2538 36.0039 18.1286 36.0039 17.998C36.0039 17.8675 35.9512 17.7423 35.8574 17.65C35.7636 17.5577 35.6365 17.5059 35.5039 17.5059V17.5059ZM22.248 18.498H30.0547C30.0989 18.8458 30.1746 19.1835 30.3027 19.498H28.9629L28.3516 18.8535C28.3049 18.8044 28.2487 18.7653 28.1864 18.7386C28.1241 18.7119 28.057 18.6981 27.9893 18.6981C27.9215 18.6981 27.8544 18.7119 27.7921 18.7386C27.7299 18.7653 27.6737 18.8044 27.627 18.8535L27.0156 19.498H25.9297L25.3203 18.8535C25.2736 18.8041 25.2173 18.7648 25.1548 18.7379C25.0923 18.711 25.025 18.6971 24.957 18.6971C24.889 18.6971 24.8217 18.711 24.7593 18.7379C24.6968 18.7648 24.6405 18.8041 24.5938 18.8535L23.9844 19.498H23.3262H23.0312L22.248 18.498ZM9.50391 19.75C9.3713 19.75 9.24413 19.8027 9.15037 19.8965C9.0566 19.9902 9.00392 20.1174 9.00391 20.25V30.4336C9.00392 30.5662 9.0566 30.6934 9.15037 30.7871C9.24413 30.8809 9.3713 30.9336 9.50391 30.9336H12.2402H14.9746C15.1072 30.9336 15.2344 30.8809 15.3281 30.7871C15.4219 30.6934 15.4746 30.5662 15.4746 30.4336V29.6953L24.8164 32.8594C24.8286 32.8638 24.841 32.8677 24.8535 32.8711C25.9411 33.1471 27.1955 32.9814 28.1445 32.3438L28.1055 32.3691L37.8164 27.0898C37.819 27.0899 37.8216 27.0899 37.8242 27.0898L38.0625 26.9551C38.8697 26.4985 39.2158 25.5044 38.8555 24.6523C38.5488 23.9269 37.9459 23.5943 37.4746 23.5254C37.0033 23.4564 36.6172 23.5918 36.6172 23.5918C36.5999 23.5974 36.583 23.6039 36.5664 23.6113L31.2383 26.084C31.2454 26.016 31.2578 25.9491 31.2578 25.8789C31.2578 24.7555 30.3272 23.8438 29.1992 23.8438H24.7598C24.7406 23.8097 24.7188 23.7628 24.7012 23.7305C24.6219 23.587 24.5339 23.4469 24.4414 23.3125C24.2563 23.0436 24.0454 22.7946 23.8125 22.5664C22.8808 21.6535 21.5914 21.0918 20.1719 21.0918H15.4746V20.2539C15.4746 20.1213 15.4219 19.9941 15.3281 19.9004C15.2344 19.8066 15.1072 19.7539 14.9746 19.7539H12.2402H9.50391V19.75ZM10.0039 20.75H12.2402H14.4746V29.9336H12.2402H10.0039V20.75ZM15.4746 22.0898H20.1719C21.3285 22.0898 22.364 22.5432 23.1133 23.2773C23.3006 23.4609 23.4707 23.6634 23.6191 23.8789C23.6934 23.9869 23.7607 24.0982 23.8242 24.2129C23.9026 24.3547 23.9558 24.4409 23.998 24.5391L24.1289 24.8398H24.5664H29.1992C29.7982 24.8398 30.2578 25.296 30.2578 25.875C30.2578 26.3093 29.9991 26.6761 29.6172 26.832H29.6113C29.4854 26.883 29.3469 26.9121 29.1992 26.9121H22.2441V27.9121H29.1992C29.393 27.9121 29.5794 27.8762 29.7578 27.8262C29.8308 27.8228 29.9021 27.8034 29.9668 27.7695L36.9473 24.5352C36.9558 24.5352 37.1208 24.4817 37.3301 24.5117C37.5447 24.5427 37.7508 24.5997 37.9355 25.0371C38.1006 25.4276 37.9499 25.8643 37.5684 26.0801L37.3359 26.2129L27.627 31.4902C27.6136 31.4974 27.6005 31.5053 27.5879 31.5137C26.9304 31.9554 25.9092 32.1022 25.1094 31.9023L15.4746 28.6406V22.0898Z" fill="black"/>
<circle cx="24" cy="24" r="22.5" stroke="black" stroke-width="3"/>
</svg>
