<svg xmlns="http://www.w3.org/2000/svg" width="26" height="26" viewBox="0 0 26 26"><path d="M 13 0 C 5.82629 0 0.0001 5.8263 0 13 C -7e-005 20.1739 5.82617 26 13 26 C 20.17383 26 26.00007 20.1739 26 13 C 25.9999 5.8263 20.17371 0 13 0 z M 13 1.0019531 C 19.63324 1.0019531 24.99991 6.3668 25 13 C 25.00007 19.6334 19.63335 25 13 25 C 6.36664 25 0.99993 19.6334 1 13 C 1.00009 6.3668 6.36676 1.0019531 13 1.0019531 z M 7 9 L 7 10.191406 L 13.5 13.408203 L 20 10.193359 L 20 9 L 7 9 z M 7 11.308594 L 7 17 L 20 17 L 20 11.308594 L 13.722656 14.414062 C 13.585406 14.482062 13.416537 14.482062 13.279297 14.414062 L 7 11.308594 z " color="#000" font-family="sans-serif" font-weight="400" overflow="visible" style="line-height:normal;text-indent:0;text-align:start;text-decoration-line:none;text-transform:none;block-progression:tb"/></svg>