<svg xmlns="http://www.w3.org/2000/svg" xmlns:xlink="http://www.w3.org/1999/xlink" width="64" height="64" viewBox="0 0 64 64"><defs><path id="a" d="M.06 64V.04H64V64z"/></defs><g fill="none" fill-rule="evenodd"><path fill="#FFFFFE" d="M51.651 21.167l-.101.088L37.192 32l14.459 10.833c.075.074.126.143.192.216A3.96 3.96 0 0052 42V22a3.96 3.96 0 00-.157-1.049c-.066.073-.117.142-.192.216M32 34.425a5.992 5.992 0 01-3.54-1.163L13.918 44.146A2.957 2.957 0 0016 45h32c.791 0 1.53-.311 2.082-.854L35.548 33.257A6 6 0 0132 34.425M12.349 21.167c-.075-.074-.126-.143-.192-.216A3.96 3.96 0 0012 22v20c0 .365.065.712.157 1.049.066-.073.117-.142.192-.216l.101-.088L26.808 32 12.349 21.167"/><mask id="b" fill="#fff"><use xlink:href="#a"/></mask><path fill="#FFFFFE" d="M32 32.425a4.001 4.001 0 0 0 2.823-1.139l.101-.087 15.158-11.345A2.957 2.957 0 0 0 48 19H16c-.791 0-1.53.311-2.082.854l15.259 11.432A4.001 4.001 0 0 0 32 32.425" mask="url(#b)"/><path fill="#4C5665" d="M52 42c0 .365-.065.712-.157 1.049-.066-.073-.117-.142-.192-.216L37.192 32 51.55 21.255l.101-.088c.075-.074.126-.143.192-.216.092.337.157.684.157 1.049v20zm-4 3H16c-.791 0-1.53-.311-2.082-.854L28.46 33.262A5.992 5.992 0 0 0 32 34.425a6 6 0 0 0 3.548-1.168l14.534 10.889A2.957 2.957 0 0 1 48 45zm-35.651-2.167c-.075.074-.126.143-.192.216A3.96 3.96 0 0 1 12 42V22c0-.365.065-.712.157-1.049.066.073.117.142.192.216L26.808 32 12.45 42.745l-.101.088zM16 19h32c.791 0 1.53.311 2.082.854L34.924 31.199l-.101.087A4.001 4.001 0 0 1 32 32.425a4.001 4.001 0 0 1-2.823-1.139L13.918 19.854A2.957 2.957 0 0 1 16 19zM32 0C14.327 0 0 14.327 0 32c0 17.673 14.327 32 32 32 17.673 0 32-14.327 32-32C64 14.327 49.673 0 32 0z" mask="url(#b)"/></g></svg>