<svg xmlns="http://www.w3.org/2000/svg" viewBox="0 0 100 100"><g data-name="Layer 2"><path d="M55.23 30.25a1.49 1.49 0 001.47-1.79 2.29 2.29 0 00-.08-.28 2.15 2.15 0 00-.14-.26 2.11 2.11 0 00-.19-.23 1.55 1.55 0 00-2.12 0 2.11 2.11 0 00-.19.23 1.26 1.26 0 00-.13.26 1.31 1.31 0 00-.09.28 1.5 1.5 0 000 .29 1.48 1.48 0 00.44 1.06A1.52 1.52 0 0055.23 30.25zM45.85 27.69a1.55 1.55 0 00-2.12 0 1.52 1.52 0 00-.44 1.06 1.5 1.5 0 001.5 1.5 1.52 1.52 0 001.06-.44 1.5 1.5 0 00.44-1.06A1.52 1.52 0 0045.85 27.69zM50 42.48a2.93 2.93 0 002.12-.75 1.5 1.5 0 00-2-2.26h-.32a1.5 1.5 0 00-2 2.26A2.91 2.91 0 0050 42.48zM53.35 34.16a1.5 1.5 0 00-1.5-1.5h-.07V29a1.5 1.5 0 00-3 0v6.71h3.07A1.5 1.5 0 0053.35 34.16z"/><path d="M19.88,87a1.49,1.49,0,0,0,1.36-2.12c-3.82-8.44-4.4-15.06-1.7-19.69,3.32-5.72,11.23-7.58,17.28-8.14,8.93-.82,10.72-4.32,11-8.44a13.1,13.1,0,0,0,1.66.12h1a13.1,13.1,0,0,0,1.66-.12c.31,4.12,2.1,7.62,11,8.44,6.05.56,14,2.42,17.28,8.14,2.7,4.63,2.12,11.25-1.7,19.69a1.5,1.5,0,1,0,2.73,1.24c4.25-9.37,4.77-16.92,1.57-22.44S73.27,55,63.45,54.05c-7.51-.7-8.28-3.1-8.35-6.23A12.52,12.52,0,0,0,63,36.21V34.53a5.13,5.13,0,0,0,0-9.9V22.51a12.53,12.53,0,0,0-6.17-10.77A6.86,6.86,0,0,0,57,10.46a7,7,0,1,0-13.91,0,6.86,6.86,0,0,0,.13,1.28A12.5,12.5,0,0,0,37,22.51V24.4a5.14,5.14,0,0,0,0,9.91v1.9a12.52,12.52,0,0,0,7.9,11.61c-.07,3.13-.84,5.53-8.35,6.23-9.82.9-16.42,4.13-19.61,9.61S14.26,76.73,18.51,86.1A1.51,1.51,0,0,0,19.88,87Zm43.89-57.4A2.16,2.16,0,0,1,63,31.23v-3.3A2.16,2.16,0,0,1,63.77,29.58ZM60,22.51v.34c-6.54-.46-11.85-4.39-13.08-9.48A9.26,9.26,0,0,1,49.51,13h1A9.52,9.52,0,0,1,60,22.51ZM50,6.5a4,4,0,0,1,4,4v0a12.38,12.38,0,0,0-3.47-.5h-1a12.24,12.24,0,0,0-3.45.5s0,0,0,0A4,4,0,0,1,50,6.5ZM43.6,15.08c-.28,3.41-1.72,6.29-3.59,7.36A9.47,9.47,0,0,1,43.6,15.08ZM36.23,29.36A2.15,2.15,0,0,1,37,27.71V31A2.14,2.14,0,0,1,36.23,29.36ZM40,36.21V25.68c2.77-.77,5-3.48,6-7.16a18.19,18.19,0,0,0,14,7.32V36.21a9.53,9.53,0,0,1-6.57,9,1.61,1.61,0,0,0-.5.14,9.33,9.33,0,0,1-2.44.33h-1a9.33,9.33,0,0,1-2.44-.33,1.61,1.61,0,0,0-.5-.14A9.53,9.53,0,0,1,40,36.21Z"/><path d="M80.72,93.5H73.19v-29H26.81v29H19.28a1.5,1.5,0,0,0,0,3H80.72a1.5,1.5,0,0,0,0-3Zm-50.91,0v-26H70.19v26Z"/></g></svg>